<svg width="128" height="128" viewBox="0 0 128 128" fill="none" xmlns="http://www.w3.org/2000/svg">
  <!-- Arrow icon only, cropped from the full logo -->
  <path d="M90.8188 61.1719C91.569 61.922 91.9907 62.9391 91.9907 64C91.9907 65.0609 91.569 66.078 90.8188 66.8281L42.8188 114.828L37.1626 109.172L78.3345 68H7.99072V60H78.3345L37.1626 18.8281L42.8188 13.1719L90.8188 61.1719Z" fill="#59B359"/>
  <path d="M106.819 85.1719L101.163 90.8281L86.8193 76.4844L92.4756 70.8281L106.819 85.1719Z" fill="#34BBFF"/>
  <path d="M119.991 60V68H94.917C95.6133 66.7939 95.9902 65.4167 95.9902 64C95.9902 62.5833 95.6133 61.2061 94.917 60H119.991Z" fill="#34BBFF"/>
  <path d="M106.819 42.8281L92.4756 57.1709L86.8193 51.5146L101.163 37.1719L106.819 42.8281Z" fill="#34BBFF"/>
</svg>
