<svg width="204" height="53" viewBox="0 0 504 128" fill="none" xmlns="http://www.w3.org/2000/svg">
  <path d="M436 34V48H448V56H436V77C436 78.66 437.34 80 439 80H446V88H440C431 88 428 85 428 76V56H420V48H428V34H436Z" fill="black"/>
  <path d="M208 48H184V56H209C210.66 56 212 57.34 212 59V64H191C184.37 64 180 67 180 75.5C180 84 184.37 88 191 88H213C216.87 88 220 84.87 220 81V60C220 53.37 217 48 208 48ZM212 77C212 78.66 210.66 80 209 80H192C189.79 80 188 79 188 75.5C188 72 189.79 72 192 72H212V77Z" fill="black"/>
  <path d="M401 48H377V56H402C403.66 56 405 57.34 405 59V64H384C377.37 64 373 67 373 75.5C373 84 377.37 88 384 88H406C409.87 88 413 84.87 413 81V60C413 53.37 410 48 401 48ZM405 77C405 78.66 403.66 80 402 80H385C382.79 80 381 79 381 75.5C381 72 382.79 72 385 72H405V77Z" fill="black"/>
  <path d="M482 48H458V56H483C484.66 56 486 57.34 486 59V64H465C458.37 64 454 67 454 75.5C454 84 458.37 88 465 88H487C490.87 88 494 84.87 494 81V60C494 53.37 491 48 482 48ZM486 77C486 78.66 484.66 80 483 80H466C463.79 80 462 79 462 75.5C462 72 463.79 72 466 72H486V77Z" fill="black"/>
  <path d="M251 48H238V34H230V75C230 83.84 235 88 244 88H251C264 88 270 82 270 68C270 54 264 48 251 48ZM253 80H243C240.24 80 238 78.31 238 75V56H253C259 56 262 60 262 68C262 76 259 80 253 80Z" fill="black"/>
  <path d="M325 68C325 82 331 88 344 88H351C360 88 365 83.84 365 75V34H357V48H344C331 48 325 54 325 68ZM333 68C333 60 336 56 342 56H357V75C357 78.31 354.76 80 352 80H342C336 80 333 76 333 68Z" fill="black"/>
  <path d="M289 72H306C308.21 72 310 72 310 75.5C310 79 308.21 80 306 80H279V88H307C313.63 88 318 84 318 75.5C318 67 313.63 64 307 64H290C287.79 64 286 63 286 59.5C286 56 287.79 56 290 56H316V48H289C282.37 48 278 51 278 59.5C278 68 282.37 72 289 72Z" fill="black"/>
  <path d="M162 34V48H174V56H162V77C162 78.6599 163.34 79.9999 165 80H172V88H166C157 87.9999 154 84.9999 154 76V56H146V48H154V34H162Z" fill="black"/>
  <path d="M90.8188 61.1719C91.569 61.922 91.9907 62.9391 91.9907 64C91.9907 65.0609 91.569 66.078 90.8188 66.8281L42.8188 114.828L37.1626 109.172L78.3345 68H7.99072V60H78.3345L37.1626 18.8281L42.8188 13.1719L90.8188 61.1719Z" fill="#59B359"/>
  <path d="M106.819 85.1719L101.163 90.8281L86.8193 76.4844L92.4756 70.8281L106.819 85.1719Z" fill="#34BBFF"/>
  <path d="M119.991 60V68H94.917C95.6133 66.7939 95.9902 65.4167 95.9902 64C95.9902 62.5833 95.6133 61.2061 94.917 60H119.991Z" fill="#34BBFF"/>
  <path d="M106.819 42.8281L92.4756 57.1709L86.8193 51.5146L101.163 37.1719L106.819 42.8281Z" fill="#34BBFF"/>
</svg>
